<?xml version="1.0" encoding="iso-8859-1"?>
<!-- Generator: Adobe Illustrator 19.0.0, SVG Export Plug-In . SVG Version: 6.00 Build 0)  -->
<svg version="1.1" id="Layer_1" xmlns="http://www.w3.org/2000/svg" xmlns:xlink="http://www.w3.org/1999/xlink" x="0px" y="0px"
	 viewBox="0 0 512 512" style="enable-background:new 0 0 512 512;" xml:space="preserve">
<ellipse style="fill:#C14616;" cx="409.516" cy="337.189" rx="24.242" ry="24.373"/>
<path style="fill:#78B591;" d="M238.743,164.307c-0.859,0.863-1.888,1.555-3.035,2.023c-16.391,6.674-28.262,8.143-40.437-4.1
	c-12.038-12.104-16.197-29.97-10.85-46.618c0.451-1.406,1.226-2.663,2.237-3.679c1.01-1.017,2.259-1.794,3.658-2.249
	c16.557-5.376,34.322-1.196,46.36,10.91c12.175,12.243,10.714,24.18,4.077,40.661C240.29,162.41,239.602,163.444,238.743,164.307z"
	/>
<path style="fill:#5D8C70;" d="M238.743,172.144c-2.012,0-4.026-0.77-5.557-2.311l-24.063-24.198
	c-3.052-3.068-3.039-8.031,0.03-11.083c3.07-3.051,8.032-3.038,11.082,0.031l24.063,24.198c3.052,3.068,3.039,8.031-0.03,11.083
	C242.74,171.384,240.742,172.144,238.743,172.144z"/>
<path style="fill:#C14616;" d="M263.33,200.23c-3.266,0-6.219-1.953-7.511-4.97c-2.902-6.773-4.436-14.438-4.436-22.168
	c0-25.847,16.876-46.873,37.619-46.873c20.742,0,37.618,21.026,37.618,46.873c0,7.728-1.533,15.393-4.436,22.168
	c-1.293,3.017-4.245,4.97-7.512,4.97H263.33z"/>
<ellipse style="fill:#7C5C9E;" cx="215.604" cy="183.975" rx="24.242" ry="24.373"/>
<g>
	<path style="fill:#912C0D;" d="M267.125,160.29h-1.154c-4.328,0-7.837-3.508-7.837-7.837c0-4.329,3.509-7.837,7.837-7.837h1.154
		c4.328,0,7.837,3.508,7.837,7.837C274.962,156.783,271.454,160.29,267.125,160.29z"/>
	<path style="fill:#912C0D;" d="M262.508,185.824h-1.154c-4.328,0-7.837-3.508-7.837-7.837c0-4.329,3.509-7.837,7.837-7.837h1.154
		c4.328,0,7.837,3.508,7.837,7.837C270.344,182.316,266.837,185.824,262.508,185.824z"/>
	<path style="fill:#912C0D;" d="M313.296,160.29h-1.156c-4.328,0-7.837-3.508-7.837-7.837c0-4.329,3.509-7.837,7.837-7.837h1.156
		c4.328,0,7.837,3.508,7.837,7.837C321.133,156.783,317.624,160.29,313.296,160.29z"/>
	<path style="fill:#912C0D;" d="M316.758,184.665h-1.154c-4.328,0-7.837-3.508-7.837-7.837c0-4.329,3.509-7.837,7.837-7.837h1.154
		c4.328,0,7.837,3.508,7.837,7.837C324.594,181.156,321.087,184.665,316.758,184.665z"/>
	<path style="fill:#912C0D;" d="M290.21,173.056h-1.154c-4.328,0-7.837-3.508-7.837-7.837c0-4.329,3.509-7.837,7.837-7.837h1.154
		c4.328,0,7.837,3.508,7.837,7.837C298.047,169.548,294.538,173.056,290.21,173.056z"/>
	<path style="fill:#912C0D;" d="M290.21,146.362h-1.154c-4.328,0-7.837-3.508-7.837-7.837c0-4.329,3.509-7.837,7.837-7.837h1.154
		c4.328,0,7.837,3.508,7.837,7.837C298.047,142.854,294.538,146.362,290.21,146.362z"/>
</g>
<ellipse style="fill:#644382;" cx="256" cy="183.975" rx="24.242" ry="24.373"/>
<ellipse style="fill:#C14616;" cx="101.334" cy="339.508" rx="24.242" ry="24.373"/>
<path style="fill:#F7EEDF;" d="M142.103,374.327c-3.65,0-7.083-1.735-9.261-4.678c-2.178-2.945-2.843-6.751-1.794-10.265
	l46.085-154.367c1.465-4.908,5.958-8.269,11.055-8.269h135.788c5.1,0,9.596,3.368,11.058,8.28l45.923,154.367
	c1.045,3.514,0.378,7.318-1.8,10.259c-2.179,2.94-5.611,4.674-9.258,4.674H142.103z"/>
<path style="fill:#EF645E;" d="M345.627,240.854l-10.657-35.826c-1.462-4.912-5.958-8.28-11.058-8.28H188.124
	c-5.096,0-9.589,3.361-11.055,8.269l-10.698,35.837H269.85v12.766c0,7.691,6.201,13.928,13.851,13.928
	c5.683,0,10.561-3.445,12.697-8.37v6.049c0,7.689,6.201,13.926,13.851,13.926s13.851-6.237,13.851-13.926v-24.373L345.627,240.854
	L345.627,240.854z"/>
<path style="opacity:0.1;enable-background:new    ;" d="M165.286,369.65c-2.178-2.944-2.843-6.751-1.794-10.265l46.085-154.367
	c1.465-4.908,5.958-8.269,11.055-8.269h-32.444c-5.097,0-9.589,3.361-11.055,8.269l-46.085,154.367
	c-1.049,3.514-0.383,7.321,1.794,10.265c2.178,2.942,5.612,4.678,9.261,4.678h32.444
	C170.897,374.327,167.464,372.593,165.286,369.65z"/>
<g>
	<ellipse style="fill:#644382;" cx="137.112" cy="333.709" rx="24.242" ry="24.373"/>
	<ellipse style="fill:#644382;" cx="377.198" cy="333.709" rx="24.242" ry="24.373"/>
</g>
<path style="fill:#C1D9E8;" d="M71.837,357.96c-0.297,1.985-0.453,4.019-0.453,6.086c0,22.412,18.066,40.578,40.353,40.578h288.526
	c22.287,0,40.353-18.166,40.353-40.578c0-2.067-0.156-4.1-0.453-6.086H71.837z"/>
<path style="opacity:0.1;enable-background:new    ;" d="M113.703,364.046c0-2.067,0.156-4.1,0.453-6.086H71.838
	c-0.297,1.985-0.453,4.019-0.453,6.086c0,22.412,18.066,40.578,40.353,40.578h42.318
	C131.769,404.623,113.703,386.459,113.703,364.046z"/>
<path style="fill:#CEE9FF;" d="M504.163,359.24c0,6.41-5.167,11.606-11.542,11.606H19.379c-6.375,0-11.542-5.196-11.542-11.606
	v-6.963c0-6.413,5.168-11.608,11.542-11.608H492.62c6.375,0,11.542,5.196,11.542,11.608v6.963H504.163z"/>
<path style="opacity:0.1;enable-background:new    ;" d="M60.604,359.24v-6.963c0-6.413,5.168-11.608,11.542-11.608H19.379
	c-6.375,0-11.542,5.196-11.542,11.608v6.963c0,6.41,5.168,11.606,11.542,11.606h52.767C65.772,370.846,60.604,365.651,60.604,359.24
	z"/>
<path d="M492.62,332.831H441.29c-2.125-15.708-15.56-27.855-31.775-27.855c-4.71,0-9.184,1.03-13.216,2.871
	c-5.339-3.988-11.952-6.353-19.103-6.353c-1.759,0-3.482,0.148-5.164,0.423l-6.243-20.988c-1.234-4.149-5.599-6.509-9.746-5.277
	c-4.148,1.234-6.511,5.596-5.277,9.746l6.8,22.858c-7.35,5.729-12.153,14.591-12.421,24.574H231.966
	c-4.328,0-7.837,3.508-7.837,7.837c0,4.329,3.509,7.837,7.837,7.837H492.62c2.044,0,3.706,1.692,3.706,3.771v6.963
	c0,2.078-1.662,3.769-3.706,3.769H370.939c-4.328,0-7.837,3.508-7.837,7.837s3.509,7.837,7.837,7.837h58.4
	c-5.345,10.725-16.368,18.104-29.075,18.104H111.737c-12.707,0-23.731-7.38-29.075-18.104h250.661c4.328,0,7.837-3.508,7.837-7.837
	s-3.509-7.837-7.837-7.837H19.379c-2.044,0-3.705-1.691-3.705-3.769v-6.963c0-2.079,1.662-3.771,3.705-3.771h173.927
	c4.328,0,7.837-3.508,7.837-7.837c0-4.329-3.509-7.837-7.837-7.837h-24.14c-0.288-10.799-5.893-20.288-14.275-25.919l17.382-58.223
	h89.741v4.929c0,12.001,9.729,21.765,21.688,21.765c2.361,0,4.66-0.383,6.825-1.105c3.429,7.495,10.98,12.711,19.722,12.711
	c11.959,0,21.688-9.764,21.688-21.763V248.69h7.909l3.773,12.684c1.234,4.149,5.595,6.51,9.746,5.277
	c4.148-1.234,6.511-5.598,5.277-9.746l-16.098-54.112c-1.619-5.442-5.551-9.777-10.502-12.078
	c1.577-5.653,2.416-11.621,2.416-17.622c0-30.167-20.391-54.71-45.455-54.71c-14.287,0-27.047,7.984-35.383,20.43
	c-0.434-7.815-3.51-15.827-11.384-23.745c-9.957-10.013-23.259-15.527-37.459-15.527c-5.705,0-11.384,0.905-16.882,2.69
	c-2.552,0.831-4.901,2.275-6.791,4.174c-1.889,1.899-3.322,4.254-4.143,6.812c-6.08,18.935-1.607,39.238,11.652,53.392
	c-3.213,5.018-5.087,10.978-5.087,17.374c0,1.84,0.162,3.64,0.46,5.396c-6.774,1.484-12.299,6.491-14.362,13.399l-29.515,98.863
	c-0.987-0.092-1.985-0.144-2.996-0.144c-8.557,0-16.335,3.389-22.092,8.891c-4.153-1.978-8.794-3.087-13.689-3.087
	c-15.407,0-28.307,10.965-31.378,25.533H19.379C8.694,332.831,0,341.554,0,352.277v6.963c0,10.721,8.694,19.442,19.379,19.442H65.82
	c6.19,19.562,24.423,33.777,45.917,33.777h288.526c21.494,0,39.727-14.216,45.917-33.777h46.44c10.686,0,19.38-8.723,19.38-19.442
	v-6.963C512,341.554,503.306,332.831,492.62,332.831z M360.838,332.831c0.455-8.711,7.607-15.663,16.358-15.663
	c8.752,0,15.903,6.952,16.358,15.663H360.838z M409.249,332.831c-0.114-4.223-1.033-8.247-2.622-11.918
	c0.937-0.169,1.902-0.263,2.887-0.263c7.548,0,13.903,5.173,15.806,12.181L409.249,332.831L409.249,332.831z M289.002,134.056
	c16.422,0,29.782,17.512,29.782,39.036c0,5.46-0.891,10.856-2.572,15.819h-28.515c0.248-1.608,0.378-3.254,0.378-4.931
	c0-15.122-10.431-27.835-24.446-31.282C268.873,141.526,278.281,134.056,289.002,134.056z M256,167.444
	c9.044,0,16.402,7.419,16.402,16.537c0,1.72-0.283,3.371-0.768,4.931h-31.269c-0.485-1.56-0.768-3.21-0.768-4.931
	C239.597,174.863,246.955,167.444,256,167.444z M191.883,118.008c0.067-0.208,0.182-0.398,0.332-0.549
	c0.148-0.149,0.325-0.257,0.522-0.322c3.93-1.277,7.98-1.924,12.039-1.924c9.995,0,19.352,3.873,26.344,10.906
	c8.216,8.262,8.878,15.689,2.689,31.372c-5.176-3.6-11.448-5.721-18.207-5.721c-5.651,0-10.961,1.48-15.576,4.067
	C190.696,145.842,187.559,131.469,191.883,118.008z M224.303,188.911h-24.336c-0.485-1.56-0.768-3.21-0.768-4.931
	c0-9.119,7.358-16.537,16.403-16.537c4.139,0,7.919,1.557,10.804,4.119c-1.597,3.824-2.483,8.019-2.483,12.419
	C223.924,185.657,224.054,187.303,224.303,188.911z M184.642,207.26c0.478-1.6,1.903-2.674,3.545-2.674h135.788
	c1.645,0,3.071,1.075,3.547,2.678l7.662,25.755h-11.083c-4.328,0-7.837,3.508-7.837,7.837v24.373c0,3.358-2.698,6.09-6.014,6.09
	c-3.317,0-6.014-2.731-6.014-6.09v-6.049c0-3.715-2.608-6.919-6.245-7.674c-3.64-0.751-7.305,1.148-8.782,4.556
	c-0.961,2.217-3.122,3.65-5.506,3.65c-3.316,0-6.014-2.732-6.014-6.092v-12.766c0-4.329-3.509-7.837-7.837-7.837h-92.899
	L184.642,207.26z M137.113,317.168c8.752,0,15.904,6.952,16.359,15.663h-32.717C121.208,324.12,128.36,317.168,137.113,317.168z
	 M101.331,322.973c1.837,0,3.6,0.312,5.247,0.879c-0.912,2.842-1.422,5.858-1.507,8.981H86.338
	C88.888,327.032,94.645,322.973,101.331,322.973z"/>
<g>
	<path style="fill:#FFFFFF;" d="M303.671,210.026c-3.489,8.422-6.317,11.251-14.741,14.74c8.424,3.488,11.253,6.317,14.741,14.74
		c3.489-8.424,6.317-11.254,14.74-14.74C309.989,221.277,307.159,218.447,303.671,210.026z"/>
	<circle style="fill:#FFFFFF;" cx="291.756" cy="242.74" r="6.503"/>
</g>
<g>
</g>
<g>
</g>
<g>
</g>
<g>
</g>
<g>
</g>
<g>
</g>
<g>
</g>
<g>
</g>
<g>
</g>
<g>
</g>
<g>
</g>
<g>
</g>
<g>
</g>
<g>
</g>
<g>
</g>
</svg>
